
<svg id="svg" version="1.1" xmlns="http://www.w3.org/2000/svg" xmlns:xlink="http://www.w3.org/1999/xlink" width="400" height="281.92771084337346" viewBox="0, 0, 400,281.92771084337346"><g id="svgg"><path id="path0" d="M190.127 48.833 C 184.050 49.101,183.222 49.218,182.530 49.910 C 182.248 50.192,181.863 50.474,181.675 50.537 C 180.493 50.931,182.450 51.935,184.908 52.195 C 186.305 52.343,188.463 52.600,189.704 52.765 C 191.054 52.945,201.417 53.130,215.515 53.225 C 243.420 53.413,245.279 53.305,247.025 51.397 L 247.647 50.718 246.852 49.867 C 246.151 49.117,245.793 48.988,243.832 48.783 C 241.005 48.486,197.075 48.528,190.127 48.833 M161.220 51.108 C 157.966 51.243,155.180 51.477,155.028 51.629 C 154.877 51.780,154.477 51.904,154.139 51.904 C 153.414 51.904,152.951 52.392,152.777 53.337 C 152.708 53.712,152.642 54.066,152.630 54.123 C 152.619 54.179,152.296 54.021,151.914 53.770 C 150.705 52.978,137.767 53.165,129.291 54.097 C 127.688 54.273,127.163 54.452,126.748 54.965 C 126.225 55.611,126.219 55.612,116.938 55.716 C 106.766 55.831,104.237 56.096,103.079 57.170 C 102.662 57.556,102.018 57.828,101.520 57.828 C 100.986 57.828,100.741 57.940,100.860 58.132 C 100.993 58.348,99.341 58.381,95.164 58.248 C 88.724 58.042,78.242 58.458,77.761 58.938 C 77.596 59.103,77.230 59.238,76.947 59.238 C 76.665 59.238,76.288 59.557,76.111 59.947 C 75.803 60.621,75.707 60.647,74.072 60.481 C 71.601 60.231,52.402 60.888,51.286 61.260 C 50.773 61.432,50.011 61.888,49.594 62.275 L 48.835 62.979 42.401 62.941 C 36.676 62.908,31.709 63.134,25.531 63.709 C 23.727 63.877,23.527 63.960,23.180 64.687 C 22.706 65.680,22.154 65.902,21.298 65.445 C 20.404 64.966,14.849 65.188,13.681 65.749 C 12.521 66.307,12.054 68.168,12.308 71.218 C 12.445 72.859,12.558 73.296,12.727 72.840 C 12.969 72.185,13.132 72.128,14.550 72.203 C 15.170 72.236,15.751 71.972,16.576 71.284 C 17.421 70.577,18.120 70.266,19.177 70.126 C 21.146 69.865,22.469 69.182,22.868 68.220 C 23.224 67.360,23.658 67.212,24.208 67.762 C 24.478 68.032,24.767 67.990,25.558 67.564 C 26.681 66.959,27.595 66.926,30.889 67.370 C 35.976 68.057,46.398 67.912,48.032 67.132 C 48.778 66.775,49.173 65.974,49.208 64.741 C 49.226 64.121,49.777 64.101,53.173 64.597 C 57.722 65.261,62.767 65.518,67.918 65.346 C 74.744 65.119,75.580 64.842,75.700 62.769 C 75.752 61.872,75.970 61.803,77.856 62.093 C 83.318 62.933,95.225 63.247,98.348 62.634 C 101.333 62.048,102.116 61.522,102.116 60.103 C 102.116 59.283,102.828 59.269,106.488 60.017 C 112.975 61.343,125.315 60.583,126.234 58.800 C 126.872 57.561,126.932 57.528,127.665 58.008 C 128.320 58.437,128.435 58.425,129.597 57.809 C 130.759 57.192,130.921 57.176,132.341 57.527 C 134.434 58.045,148.908 58.297,150.579 57.845 C 152.099 57.433,152.891 56.659,152.891 55.588 C 152.891 54.506,152.999 54.464,155.063 54.752 C 170.374 56.883,180.544 55.813,178.961 52.236 C 178.845 51.976,178.740 51.636,178.727 51.481 C 178.670 50.822,171.669 50.673,161.220 51.108 M251.199 50.970 C 249.225 51.096,249.225 51.096,250.141 51.486 C 250.977 51.842,251.058 51.986,251.058 53.116 C 251.058 55.410,252.871 55.966,259.820 55.805 C 264.420 55.699,264.963 55.563,266.599 54.107 C 267.472 53.330,267.025 52.071,265.636 51.395 C 264.843 51.009,255.097 50.722,251.199 50.970 M179.281 51.321 C 179.437 51.475,179.958 51.487,180.536 51.350 L 181.523 51.116 180.268 51.087 C 179.488 51.069,179.114 51.157,179.281 51.321 M268.368 53.736 C 268.279 53.968,268.124 54.108,268.024 54.047 C 267.708 53.855,267.696 56.163,268.010 56.750 C 268.847 58.313,273.686 58.735,275.290 57.385 C 276.369 56.477,276.728 56.685,276.728 58.219 C 276.728 60.634,280.037 61.572,282.399 59.826 C 282.836 59.503,283.314 59.238,283.463 59.238 C 283.611 59.238,283.803 59.080,283.888 58.886 C 283.974 58.692,283.972 59.001,283.884 59.573 C 283.659 61.037,284.188 62.409,285.211 63.014 C 285.685 63.294,286.217 63.839,286.393 64.224 C 286.568 64.610,287.227 65.187,287.855 65.506 C 288.484 65.826,289.262 66.369,289.583 66.713 C 289.941 67.097,290.680 67.417,291.491 67.538 C 292.666 67.714,292.876 67.860,293.375 68.838 C 293.684 69.443,294.222 70.086,294.571 70.266 C 294.919 70.446,295.694 71.094,296.291 71.705 C 297.142 72.576,297.570 72.806,298.266 72.769 C 299.919 72.680,300.129 72.777,300.695 73.886 C 301.006 74.496,301.517 75.076,301.832 75.176 C 302.147 75.276,302.612 75.761,302.867 76.254 C 303.388 77.262,304.026 77.832,304.654 77.851 C 305.637 77.882,305.828 78.274,305.499 79.581 C 305.102 81.158,305.454 82.185,306.596 82.776 C 307.326 83.153,307.459 83.413,307.632 84.796 C 307.774 85.931,308.050 86.634,308.601 87.267 C 309.131 87.875,309.424 88.593,309.537 89.563 C 309.801 91.810,309.860 92.092,310.101 92.269 C 310.226 92.362,310.244 92.774,310.141 93.186 L 309.953 93.935 306.232 93.935 C 304.185 93.935,302.390 94.050,302.243 94.190 C 302.095 94.330,301.403 94.503,300.705 94.574 C 298.730 94.775,294.108 95.663,293.794 95.903 C 293.639 96.021,292.623 96.274,291.537 96.466 C 290.451 96.657,288.611 97.048,287.447 97.335 C 279.607 99.265,271.153 99.274,269.364 97.354 C 269.061 97.029,268.468 96.689,268.046 96.599 C 266.635 96.298,265.999 95.922,265.739 95.236 C 265.336 94.178,264.351 93.653,262.772 93.655 C 261.141 93.656,259.238 94.118,259.238 94.513 C 259.238 94.660,259.111 94.781,258.956 94.781 C 258.801 94.781,258.672 94.432,258.670 94.006 C 258.659 91.917,257.182 91.022,254.161 91.271 C 251.742 91.471,247.614 92.223,247.243 92.530 C 246.773 92.920,246.382 92.460,246.312 91.435 C 246.277 90.914,246.123 90.253,245.970 89.967 C 244.899 87.966,232.795 88.898,232.261 91.023 C 231.761 93.017,239.195 94.609,245.254 93.805 C 246.036 93.701,246.593 93.699,246.492 93.800 C 245.371 94.920,249.220 96.011,254.374 96.034 L 258.112 96.051 258.555 96.982 C 259.056 98.039,259.576 98.293,261.784 98.564 C 264.449 98.891,264.959 101.145,262.505 101.752 C 260.585 102.227,259.193 102.932,259.043 103.505 C 258.965 103.804,258.464 104.091,257.738 104.252 C 256.806 104.459,256.477 104.699,256.169 105.397 C 255.837 106.150,255.590 106.306,254.488 106.457 C 252.978 106.664,251.624 107.210,251.618 107.615 C 251.607 108.308,251.014 108.695,249.629 108.914 C 248.492 109.094,247.899 109.382,247.130 110.131 C 246.474 110.769,245.665 111.214,244.818 111.402 C 242.737 111.866,242.038 112.215,241.767 112.929 C 241.553 113.490,241.248 113.629,239.875 113.791 C 238.265 113.980,236.953 114.755,236.953 115.518 C 236.953 115.716,235.753 116.041,233.921 116.339 C 232.253 116.611,230.882 116.854,230.874 116.879 C 230.618 117.673,229.763 118.425,228.970 118.554 C 227.454 118.800,225.339 119.871,225.182 120.473 C 225.072 120.893,224.777 121.020,223.874 121.037 C 222.202 121.068,220.789 121.652,220.384 122.479 C 220.100 123.061,219.768 123.224,218.589 123.364 C 216.677 123.591,215.580 124.104,215.390 124.861 C 215.273 125.327,214.944 125.528,214.049 125.679 C 212.060 126.015,210.991 126.500,210.628 127.230 C 210.329 127.832,210.033 127.949,208.455 128.091 C 206.475 128.270,204.388 129.089,203.546 130.020 C 203.254 130.343,202.701 130.606,202.316 130.606 C 201.043 130.606,199.412 131.259,198.766 132.027 C 198.310 132.569,197.741 132.842,196.763 132.988 C 194.790 133.284,194.100 133.610,193.806 134.383 C 193.533 135.100,193.497 135.113,189.929 135.711 C 188.227 135.996,187.750 136.204,186.983 136.996 C 186.479 137.516,185.861 137.941,185.608 137.941 C 184.620 137.941,182.528 138.860,182.128 139.470 C 181.812 139.952,181.338 140.158,180.243 140.287 C 178.395 140.506,177.314 140.980,176.985 141.718 C 176.794 142.146,176.254 142.389,174.894 142.659 C 173.438 142.949,172.875 143.219,172.158 143.974 C 171.476 144.693,170.926 144.973,169.902 145.122 C 168.901 145.268,168.285 145.573,167.542 146.291 C 166.756 147.049,166.178 147.321,164.903 147.528 C 163.141 147.815,162.553 148.156,162.194 149.099 C 162.004 149.599,161.658 149.732,160.178 149.873 C 157.822 150.098,156.199 150.680,155.861 151.423 C 155.675 151.831,155.172 152.114,154.299 152.301 C 152.360 152.717,151.556 153.083,150.884 153.855 C 150.549 154.241,149.880 154.635,149.397 154.732 C 148.048 155.002,146.594 155.716,146.084 156.357 C 145.831 156.676,145.006 157.095,144.250 157.290 C 142.045 157.857,141.280 158.223,141.134 158.781 C 141.051 159.099,140.538 159.440,139.822 159.653 C 138.381 160.080,137.941 160.420,137.941 161.101 C 137.941 161.443,137.671 161.685,137.165 161.797 C 134.550 162.376,133.797 162.779,133.405 163.811 C 133.245 164.231,132.928 164.457,132.496 164.457 C 131.741 164.457,130.606 165.527,130.606 166.238 C 130.606 166.536,130.381 166.714,130.005 166.714 C 128.796 166.714,127.172 167.397,126.510 168.182 C 125.869 168.945,124.023 169.813,123.025 169.820 C 122.773 169.822,122.295 170.244,121.962 170.758 C 121.591 171.332,120.992 171.797,120.411 171.964 C 119.822 172.132,119.326 172.521,119.100 172.993 C 118.899 173.409,118.294 173.960,117.756 174.215 C 117.217 174.471,116.569 175.031,116.316 175.459 C 116.063 175.888,115.464 176.412,114.986 176.624 C 114.406 176.881,114.033 177.305,113.867 177.895 C 113.684 178.543,113.387 178.846,112.753 179.028 C 112.242 179.175,111.699 179.620,111.425 180.118 C 111.170 180.580,110.625 181.123,110.213 181.323 C 109.802 181.524,109.256 182.128,109.001 182.666 C 108.726 183.246,108.262 183.714,107.863 183.814 C 107.473 183.912,107.004 184.376,106.747 184.917 C 106.495 185.448,105.899 186.044,105.369 186.296 C 104.855 186.539,104.356 187.025,104.260 187.375 C 104.164 187.725,103.583 188.357,102.967 188.779 C 102.352 189.201,101.775 189.840,101.685 190.198 C 101.595 190.556,101.143 191.016,100.679 191.222 C 100.184 191.441,99.637 192.020,99.354 192.624 C 99.089 193.190,98.608 193.769,98.285 193.911 C 97.566 194.227,97.101 195.228,96.861 196.983 C 96.712 198.070,96.556 198.347,96.018 198.482 C 95.323 198.656,94.499 199.983,94.499 200.927 C 94.499 202.053,93.855 203.622,93.337 203.758 C 91.130 204.335,91.364 220.310,93.579 220.310 C 93.775 220.310,93.935 220.508,93.935 220.750 C 93.935 220.992,94.055 221.116,94.200 221.026 C 94.355 220.930,94.410 221.247,94.331 221.785 C 94.081 223.495,94.801 225.475,95.839 225.932 C 96.343 226.154,96.756 226.545,96.756 226.800 C 96.756 227.326,97.655 228.191,98.792 228.758 C 99.213 228.968,99.487 229.254,99.401 229.393 C 99.218 229.689,100.339 230.851,101.062 231.115 C 101.336 231.215,101.672 231.591,101.808 231.951 C 102.198 232.975,102.748 233.273,104.618 233.468 C 106.119 233.625,106.379 233.738,106.518 234.294 C 106.810 235.456,107.562 235.855,109.562 235.911 C 111.050 235.952,111.425 236.052,111.425 236.409 C 111.425 237.831,119.384 239.544,120.554 238.374 C 120.768 238.160,120.981 238.338,121.289 238.991 C 121.953 240.397,122.943 240.721,126.798 240.797 C 128.660 240.833,130.439 240.872,130.751 240.883 C 131.063 240.894,131.444 241.178,131.597 241.515 C 132.149 242.727,133.574 242.943,142.512 243.166 C 147.121 243.281,151.310 243.276,151.821 243.155 C 152.332 243.034,152.543 242.922,152.290 242.906 C 151.781 242.874,151.491 242.083,151.485 240.711 C 151.476 238.585,150.027 238.244,141.890 238.458 C 136.499 238.599,135.300 238.710,133.928 239.199 C 133.040 239.515,132.120 239.774,131.883 239.774 C 131.646 239.774,131.453 239.880,131.453 240.009 C 131.453 241.077,130.692 239.995,130.640 238.853 C 130.560 237.117,130.169 236.475,128.946 236.071 C 127.455 235.579,123.949 235.992,122.517 236.829 C 121.019 237.704,121.016 237.704,121.016 236.549 C 121.016 234.190,120.166 233.493,117.310 233.509 C 114.958 233.523,113.816 233.747,112.631 234.428 C 111.598 235.022,111.542 234.975,111.459 233.431 C 111.383 232.023,110.598 231.150,109.208 230.928 C 108.561 230.824,107.845 230.434,107.346 229.914 C 106.901 229.449,106.110 228.928,105.590 228.756 C 105.022 228.568,104.476 228.117,104.222 227.626 C 103.989 227.176,103.428 226.534,102.975 226.199 C 102.522 225.864,102.000 225.225,101.815 224.778 C 101.630 224.331,101.114 223.751,100.668 223.488 C 99.684 222.906,99.622 222.714,99.531 219.975 C 99.445 217.393,99.813 216.796,101.634 216.559 C 106.792 215.887,107.644 215.689,111.439 214.272 C 113.681 213.435,116.621 212.544,117.973 212.292 C 119.325 212.040,121.284 211.450,122.328 210.982 C 123.680 210.376,125.306 209.970,127.987 209.572 C 130.057 209.264,132.349 208.776,133.082 208.488 C 133.815 208.199,135.684 207.750,137.236 207.489 C 138.809 207.225,140.867 206.653,141.890 206.196 C 143.353 205.543,144.550 205.286,147.814 204.928 C 150.063 204.681,152.633 204.293,153.524 204.066 C 155.027 203.683,155.219 203.691,156.203 204.186 C 159.673 205.930,166.356 205.593,170.034 203.489 C 171.165 202.842,171.498 203.181,171.505 204.987 C 171.513 207.206,172.261 207.475,178.420 207.475 C 183.098 207.475,185.581 207.044,186.563 206.062 C 186.796 205.829,187.489 205.642,188.116 205.642 C 188.738 205.642,189.326 205.515,189.422 205.360 C 189.528 205.188,189.107 205.078,188.343 205.078 C 187.358 205.078,187.060 204.965,186.952 204.552 C 186.597 203.192,173.762 201.866,172.562 203.065 C 172.167 203.460,171.694 203.489,171.932 203.103 C 172.030 202.944,171.806 202.821,171.419 202.821 C 169.620 202.821,169.647 200.145,171.449 199.851 C 172.025 199.757,172.840 199.616,173.260 199.538 C 173.681 199.460,174.391 198.978,174.840 198.467 C 175.475 197.744,175.962 197.495,177.038 197.343 C 180.247 196.892,181.276 196.536,181.747 195.715 C 181.998 195.279,182.416 194.922,182.676 194.922 C 183.718 194.922,185.440 194.207,186.181 193.465 C 186.620 193.026,187.506 192.560,188.193 192.406 C 189.743 192.058,191.147 191.363,191.606 190.716 C 191.845 190.380,192.513 190.155,193.653 190.029 C 195.078 189.871,195.483 189.694,196.212 188.915 C 196.899 188.180,197.445 187.920,198.848 187.659 C 200.755 187.305,201.338 186.968,201.702 186.013 C 201.896 185.500,202.245 185.369,203.858 185.198 C 206.022 184.969,208.014 184.181,208.533 183.349 C 208.724 183.043,209.174 182.793,209.533 182.793 C 210.409 182.793,212.751 181.706,213.174 181.103 C 213.411 180.766,214.087 180.567,215.406 180.443 C 217.310 180.265,218.618 179.542,218.618 178.666 C 218.618 178.467,219.094 178.227,219.676 178.132 C 220.257 178.037,221.079 177.895,221.502 177.816 C 221.924 177.738,222.595 177.287,222.993 176.814 C 223.603 176.089,224.052 175.896,225.861 175.582 C 227.041 175.377,228.141 175.075,228.305 174.911 C 228.469 174.747,228.818 174.612,229.079 174.612 C 229.340 174.612,229.762 174.295,230.016 173.907 C 230.271 173.519,230.761 173.192,231.107 173.180 C 232.357 173.136,234.553 172.182,234.834 171.561 C 234.987 171.222,235.368 170.935,235.680 170.923 C 237.275 170.862,239.413 169.700,239.649 168.766 C 239.658 168.732,240.604 168.506,241.752 168.265 C 243.795 167.835,244.852 167.254,244.852 166.562 C 244.852 166.151,245.739 165.878,247.109 165.867 C 248.387 165.857,249.407 165.329,249.843 164.451 C 250.130 163.872,250.461 163.722,251.767 163.576 C 253.334 163.401,254.725 162.549,254.725 161.764 C 254.725 161.578,255.264 161.341,255.924 161.237 C 257.871 160.929,259.238 160.444,259.238 160.060 C 259.238 159.370,260.055 158.896,261.549 158.721 C 263.720 158.466,265.622 157.747,266.114 156.996 C 266.348 156.639,266.896 156.256,267.331 156.147 C 268.323 155.898,268.821 155.490,269.134 154.666 C 269.269 154.311,269.594 154.020,269.855 154.020 C 270.752 154.020,273.343 153.071,273.343 152.743 C 273.343 152.185,274.268 151.608,275.740 151.249 C 276.712 151.012,277.438 150.599,278.071 149.923 C 278.578 149.384,279.155 148.942,279.354 148.942 C 279.553 148.942,280.212 148.434,280.818 147.814 C 281.606 147.007,282.165 146.679,282.779 146.664 C 284.203 146.628,285.562 145.990,286.037 145.134 C 286.473 144.347,287.838 143.647,289.021 143.604 C 289.344 143.592,289.770 143.281,289.967 142.913 C 290.184 142.507,290.785 142.108,291.495 141.897 C 293.677 141.250,295.026 140.494,295.403 139.706 C 295.607 139.281,296.129 138.763,296.563 138.555 C 296.997 138.347,297.468 137.870,297.611 137.495 C 297.784 137.040,298.092 136.812,298.533 136.812 C 299.214 136.812,300.202 135.931,300.516 135.043 C 300.613 134.768,300.917 134.463,301.192 134.365 C 301.938 134.101,302.714 133.365,302.980 132.672 C 303.127 132.287,303.506 132.023,303.993 131.967 C 304.554 131.901,304.920 131.593,305.303 130.864 C 305.595 130.307,306.188 129.643,306.620 129.387 C 307.053 129.131,307.619 128.476,307.878 127.931 C 308.136 127.386,308.513 126.939,308.714 126.939 C 309.235 126.939,309.937 126.085,310.164 125.176 C 310.270 124.750,310.512 124.401,310.701 124.401 C 311.315 124.401,312.152 123.163,312.513 121.721 C 312.738 120.823,313.214 119.951,313.823 119.323 C 314.899 118.212,315.356 116.688,315.367 114.175 C 315.372 113.019,315.481 112.553,315.748 112.553 C 317.190 112.553,317.471 111.446,317.701 104.861 C 318.029 95.524,317.325 90.268,315.747 90.268 C 315.479 90.268,315.368 89.769,315.353 88.505 C 315.330 86.507,314.692 85.101,313.745 84.961 C 313.264 84.890,313.111 84.613,312.968 83.551 C 312.699 81.549,312.425 80.847,311.785 80.525 C 310.817 80.038,310.296 79.505,310.296 79.003 C 310.296 78.230,309.258 76.334,308.625 75.950 C 308.300 75.752,308.039 75.301,308.039 74.933 C 308.039 74.165,306.862 72.779,306.211 72.779 C 305.966 72.779,305.687 72.556,305.591 72.285 C 305.341 71.576,304.337 70.522,303.911 70.522 C 303.712 70.522,303.084 70.020,302.517 69.407 C 301.706 68.530,301.160 68.224,299.967 67.976 C 299.105 67.797,298.449 67.508,298.449 67.307 C 298.449 66.880,297.268 65.726,296.832 65.726 C 296.661 65.726,296.061 65.240,295.497 64.646 C 294.934 64.051,294.044 63.396,293.520 63.191 C 292.996 62.985,292.509 62.593,292.437 62.319 C 292.308 61.827,290.116 60.649,289.328 60.649 C 289.105 60.649,288.719 60.222,288.471 59.699 C 287.951 58.602,286.151 57.916,284.655 58.245 C 283.915 58.407,283.780 58.354,283.780 57.900 C 283.780 56.547,280.744 55.375,277.896 55.626 C 277.081 55.698,276.849 55.584,276.472 54.927 C 275.591 53.388,268.880 52.402,268.368 53.736 M19.746 77.056 C 17.962 77.203,15.614 77.364,14.528 77.413 L 12.553 77.503 12.636 78.314 C 12.767 79.598,13.478 80.876,14.172 81.075 C 15.515 81.460,26.018 81.819,33.721 81.743 L 41.764 81.664 42.082 82.383 C 42.726 83.837,42.178 83.802,68.265 84.066 C 81.685 84.203,93.797 84.237,95.179 84.143 C 96.868 84.027,97.633 84.066,97.513 84.261 C 97.273 84.649,98.085 85.318,99.285 85.721 C 100.791 86.227,128.821 86.723,140.339 86.447 C 145.614 86.321,149.549 86.128,149.083 86.019 C 148.618 85.910,148.403 85.806,148.606 85.788 C 149.433 85.713,148.879 83.428,147.870 82.750 C 145.019 80.835,99.502 81.408,97.865 83.380 C 97.493 83.828,94.781 83.949,94.781 83.517 C 94.781 83.372,94.527 83.173,94.217 83.075 C 93.802 82.943,93.694 82.730,93.808 82.272 C 94.028 81.398,92.900 80.420,91.055 79.886 C 86.258 78.497,43.998 79.315,42.486 80.826 C 42.207 81.106,41.593 81.222,40.623 81.180 C 39.462 81.129,39.264 81.054,39.617 80.795 C 40.085 80.453,40.210 78.817,39.815 78.195 C 39.040 76.973,28.210 76.358,19.746 77.056 M164.880 84.370 C 159.205 84.650,156.041 85.228,155.375 86.107 C 155.101 86.468,155.017 86.785,155.179 86.842 C 155.336 86.896,155.778 87.233,156.163 87.589 C 156.552 87.950,157.387 88.309,158.050 88.401 C 160.230 88.703,195.592 89.209,196.041 88.945 C 197.183 88.273,203.420 88.873,203.895 89.700 C 204.567 90.871,207.972 91.197,219.840 91.229 C 228.279 91.252,229.464 91.203,229.362 90.832 C 229.298 90.599,229.171 89.851,229.080 89.169 C 228.834 87.330,228.102 86.911,224.522 86.562 C 218.601 85.985,204.475 87.082,203.868 88.166 C 203.718 88.434,203.182 88.574,202.313 88.572 C 200.012 88.565,199.758 88.407,199.662 86.924 C 199.555 85.276,198.717 84.793,195.212 84.359 C 192.488 84.021,171.811 84.029,164.880 84.370 M152.824 86.236 C 153.175 86.304,153.683 86.301,153.953 86.230 C 154.222 86.160,153.935 86.105,153.315 86.108 C 152.694 86.111,152.473 86.169,152.824 86.236 M191.961 205.360 C 191.030 205.463,190.401 205.568,190.564 205.594 C 190.731 205.621,190.810 206.071,190.745 206.628 C 190.394 209.634,191.276 210.013,198.590 210.005 C 206.136 209.998,209.615 208.974,208.653 207.045 C 207.848 205.430,199.209 204.558,191.961 205.360 M212.001 207.597 C 211.912 207.741,211.967 207.939,212.125 208.037 C 212.283 208.134,212.412 208.749,212.412 209.404 C 212.412 212.023,213.436 212.408,220.411 212.410 C 225.664 212.412,228.133 212.047,229.619 211.051 C 230.007 210.791,230.832 210.502,231.453 210.409 L 232.581 210.240 231.507 210.198 C 230.916 210.174,230.499 210.048,230.580 209.916 C 231.533 208.373,226.855 207.478,218.975 207.696 C 216.209 207.773,214.179 207.724,214.266 207.583 C 214.351 207.446,213.912 207.334,213.291 207.334 C 212.671 207.334,212.090 207.452,212.001 207.597 M233.978 210.143 C 233.217 210.451,233.417 213.654,234.235 214.252 C 235.568 215.226,246.871 215.133,249.758 214.124 C 252.459 213.180,252.804 212.545,251.365 211.167 L 250.545 210.381 244.948 210.140 C 237.973 209.840,234.723 209.841,233.978 210.143 M253.667 212.719 C 253.176 213.234,253.226 215.263,253.748 216.008 C 255.082 217.912,270.503 217.730,273.144 215.779 C 274.256 214.958,274.877 215.156,274.970 216.363 C 275.215 219.522,275.447 219.609,283.639 219.590 C 293.870 219.567,298.291 217.869,293.677 215.735 C 292.207 215.055,277.929 214.316,277.023 214.873 C 276.002 215.502,273.343 214.626,273.343 213.661 C 273.343 212.699,254.545 211.799,253.667 212.719 M298.434 217.445 L 296.868 217.630 296.811 219.041 C 296.702 221.708,297.775 222.135,304.513 222.107 C 312.694 222.072,316.289 220.738,314.101 218.551 C 313.096 217.546,303.380 216.860,298.434 217.445 M317.772 219.721 L 316.925 219.912 317.701 220.116 C 318.412 220.304,318.477 220.435,318.477 221.682 C 318.477 223.365,318.940 223.841,321.008 224.284 C 324.604 225.055,333.174 224.055,333.662 222.807 C 333.768 222.537,334.589 222.489,335.187 222.719 C 335.446 222.818,335.541 223.159,335.461 223.703 C 335.283 224.913,335.604 225.889,336.302 226.263 C 338.302 227.333,346.468 227.068,349.507 225.833 C 351.824 224.891,351.763 224.873,351.763 226.516 C 351.763 228.371,352.336 228.945,354.450 229.209 C 358.086 229.663,364.622 228.701,364.969 227.661 C 365.299 226.671,366.063 227.435,366.111 228.803 C 366.139 229.596,366.288 230.479,366.441 230.765 C 367.305 232.380,374.575 232.236,376.935 230.558 C 377.597 230.087,378.285 229.753,378.465 229.816 C 378.645 229.879,378.874 229.797,378.975 229.634 C 379.076 229.471,378.997 229.337,378.800 229.337 C 378.603 229.337,377.912 228.817,377.265 228.182 L 376.088 227.027 370.723 226.983 C 367.772 226.959,365.405 226.864,365.462 226.771 C 365.762 226.283,363.879 225.074,362.460 224.843 C 359.678 224.391,352.707 224.155,352.491 224.506 C 352.130 225.089,351.237 224.840,350.859 224.051 C 350.121 222.510,346.349 221.915,338.435 222.089 L 334.275 222.180 333.948 221.443 C 333.393 220.189,332.549 219.999,326.375 219.739 C 319.766 219.460,318.939 219.458,317.772 219.721 M379.221 229.873 C 378.852 230.216,378.671 230.698,378.716 231.213 C 378.756 231.655,378.800 232.236,378.815 232.503 C 378.860 233.274,380.386 233.870,383.006 234.140 C 385.671 234.415,385.977 234.597,386.550 236.249 C 386.816 237.015,387.113 237.383,387.476 237.395 C 388.302 237.425,388.999 236.986,388.999 236.436 C 388.999 236.162,389.141 235.795,389.316 235.620 C 389.734 235.202,389.513 232.270,388.982 231.192 C 388.142 229.487,380.713 228.483,379.221 229.873 M387.295 238.744 C 387.193 238.840,385.636 239.089,384.470 239.196 C 384.384 239.204,383.846 239.638,383.274 240.162 L 382.235 241.114 369.608 241.250 C 362.664 241.324,348.794 241.269,338.787 241.127 C 309.352 240.708,244.222 240.727,228.456 241.158 C 217.563 241.457,213.266 241.465,207.581 241.198 C 197.935 240.746,164.465 240.710,160.367 241.147 C 157.538 241.449,154.870 241.870,153.710 242.197 C 152.165 242.632,152.677 244.173,154.584 244.830 C 156.886 245.622,215.779 245.757,369.158 245.322 L 385.848 245.275 386.546 244.621 C 387.083 244.117,387.315 243.488,387.553 241.884 C 387.823 240.069,387.684 238.376,387.295 238.744 " stroke="none" fill="#3c449f" fill-rule="evenodd"></path><path id="path1" d="M177.010 51.035 C 177.941 51.125,178.713 51.326,178.727 51.481 C 178.740 51.636,178.845 51.976,178.961 52.236 C 180.544 55.813,170.374 56.883,155.063 54.752 C 152.999 54.464,152.891 54.506,152.891 55.588 C 152.891 56.659,152.099 57.433,150.579 57.845 C 148.908 58.297,134.434 58.045,132.341 57.527 C 130.921 57.176,130.759 57.192,129.597 57.809 C 128.435 58.425,128.320 58.437,127.665 58.008 C 126.932 57.528,126.872 57.561,126.234 58.800 C 125.315 60.583,112.975 61.343,106.488 60.017 C 102.828 59.269,102.116 59.283,102.116 60.103 C 102.116 61.522,101.333 62.048,98.348 62.634 C 95.225 63.247,83.318 62.933,77.856 62.093 C 75.970 61.803,75.752 61.872,75.700 62.769 C 75.580 64.842,74.744 65.119,67.918 65.346 C 62.767 65.518,57.722 65.261,53.173 64.597 C 49.777 64.101,49.226 64.121,49.208 64.741 C 49.173 65.974,48.778 66.775,48.032 67.132 C 46.398 67.912,35.976 68.057,30.889 67.370 C 27.595 66.926,26.681 66.959,25.558 67.564 C 24.767 67.990,24.478 68.032,24.208 67.762 C 23.658 67.212,23.224 67.360,22.868 68.220 C 22.469 69.182,21.146 69.865,19.177 70.126 C 18.123 70.266,17.421 70.577,16.585 71.275 C 15.683 72.029,15.220 72.220,14.406 72.172 C 13.208 72.101,12.712 72.337,12.650 73.007 C 12.625 73.269,12.516 72.849,12.407 72.073 C 12.270 71.098,12.218 71.708,12.240 74.048 L 12.271 77.433 14.245 77.404 C 15.331 77.389,18.315 77.219,20.874 77.027 C 29.836 76.355,39.007 76.920,39.815 78.195 C 40.210 78.817,40.085 80.453,39.617 80.795 C 39.264 81.054,39.462 81.129,40.623 81.180 C 41.593 81.222,42.207 81.106,42.486 80.826 C 43.998 79.315,86.258 78.497,91.055 79.886 C 92.900 80.420,94.028 81.398,93.808 82.272 C 93.694 82.730,93.802 82.943,94.217 83.075 C 94.527 83.173,94.781 83.372,94.781 83.517 C 94.781 83.949,97.493 83.828,97.865 83.380 C 98.963 82.057,137.715 80.851,145.331 81.903 C 148.100 82.285,150.203 84.781,148.609 85.792 C 148.355 85.953,148.506 86.049,149.083 86.093 C 149.549 86.128,147.772 86.230,145.134 86.319 C 140.443 86.477,140.499 86.482,147.709 86.541 C 154.818 86.599,155.093 86.581,155.466 86.032 C 156.386 84.681,164.587 84.075,182.095 84.067 C 197.341 84.060,199.499 84.411,199.662 86.924 C 199.758 88.407,200.012 88.565,202.313 88.572 C 203.182 88.574,203.718 88.434,203.868 88.166 C 204.475 87.082,218.601 85.985,224.522 86.562 C 228.676 86.967,228.849 87.127,229.383 91.044 C 229.469 91.675,232.087 91.501,232.293 90.850 C 232.738 89.449,241.411 88.258,244.637 89.154 C 245.812 89.480,246.218 90.032,246.312 91.435 C 246.382 92.460,246.773 92.920,247.243 92.530 C 247.614 92.223,251.742 91.471,254.161 91.271 C 257.182 91.022,258.659 91.917,258.670 94.006 C 258.672 94.432,258.801 94.781,258.956 94.781 C 259.111 94.781,259.238 94.660,259.238 94.513 C 259.238 94.118,261.141 93.656,262.772 93.655 C 264.351 93.653,265.336 94.178,265.739 95.236 C 265.999 95.922,266.635 96.298,268.046 96.599 C 268.468 96.689,269.061 97.029,269.364 97.354 C 271.153 99.274,279.607 99.265,287.447 97.335 C 288.611 97.048,290.451 96.657,291.537 96.466 C 292.623 96.274,293.639 96.021,293.794 95.903 C 294.108 95.663,298.730 94.775,300.705 94.574 C 301.403 94.503,302.095 94.330,302.243 94.190 C 302.390 94.050,304.185 93.935,306.232 93.935 L 309.953 93.935 310.141 93.186 C 310.244 92.774,310.226 92.362,310.101 92.269 C 309.860 92.092,309.801 91.810,309.537 89.563 C 309.424 88.593,309.131 87.875,308.601 87.267 C 308.050 86.634,307.774 85.931,307.632 84.796 C 307.459 83.413,307.326 83.153,306.596 82.776 C 305.454 82.185,305.102 81.158,305.499 79.581 C 305.828 78.274,305.637 77.882,304.654 77.851 C 304.026 77.832,303.388 77.262,302.867 76.254 C 302.612 75.761,302.147 75.276,301.832 75.176 C 301.517 75.076,301.006 74.496,300.695 73.886 C 300.129 72.777,299.919 72.680,298.266 72.769 C 297.570 72.806,297.142 72.576,296.291 71.705 C 295.694 71.094,294.919 70.446,294.571 70.266 C 294.222 70.086,293.684 69.443,293.375 68.838 C 292.876 67.860,292.666 67.714,291.491 67.538 C 290.680 67.417,289.941 67.097,289.583 66.713 C 289.262 66.369,288.484 65.826,287.855 65.506 C 287.227 65.187,286.568 64.610,286.393 64.224 C 286.217 63.839,285.685 63.294,285.211 63.014 C 284.188 62.409,283.659 61.037,283.884 59.573 C 283.972 59.001,283.974 58.692,283.888 58.886 C 283.803 59.080,283.611 59.238,283.463 59.238 C 283.314 59.238,282.836 59.503,282.399 59.826 C 280.037 61.572,276.728 60.634,276.728 58.219 C 276.728 56.685,276.369 56.477,275.290 57.385 C 273.686 58.735,268.847 58.313,268.010 56.750 C 267.696 56.163,267.708 53.855,268.024 54.047 C 268.124 54.108,268.279 53.968,268.368 53.736 C 268.631 53.049,267.599 53.234,266.687 54.036 C 264.941 55.574,264.459 55.698,259.820 55.805 C 252.871 55.966,251.058 55.410,251.058 53.116 C 251.058 51.986,250.977 51.842,250.141 51.486 C 249.227 51.097,249.231 51.095,251.199 50.991 C 252.902 50.901,252.785 50.879,250.344 50.831 C 247.767 50.781,247.478 50.828,247.100 51.362 C 246.465 52.258,245.024 52.734,241.910 53.074 C 238.258 53.472,193.004 53.205,189.704 52.765 C 188.463 52.600,186.305 52.343,184.908 52.195 C 182.901 51.983,182.271 51.806,181.901 51.351 C 181.477 50.830,181.143 50.780,178.375 50.823 C 175.856 50.862,175.615 50.899,177.010 51.035 M180.536 51.350 C 179.958 51.487,179.437 51.475,179.281 51.321 C 179.114 51.157,179.488 51.069,180.268 51.087 L 181.523 51.116 180.536 51.350 M151.875 53.738 C 152.169 53.960,152.521 54.075,152.655 53.991 C 153.062 53.740,152.618 53.314,151.958 53.323 C 151.360 53.332,151.358 53.346,151.875 53.738 M124.330 55.770 C 124.679 55.838,125.250 55.838,125.599 55.770 C 125.949 55.703,125.663 55.648,124.965 55.648 C 124.267 55.648,123.981 55.703,124.330 55.770 M97.109 58.317 C 97.846 58.375,99.051 58.375,99.788 58.317 C 100.525 58.259,99.922 58.212,98.449 58.212 C 96.975 58.212,96.372 58.259,97.109 58.317 M21.298 65.444 C 21.393 65.599,21.711 65.726,22.003 65.726 C 22.295 65.726,22.612 65.599,22.708 65.444 C 22.810 65.279,22.517 65.162,22.003 65.162 C 21.488 65.162,21.196 65.279,21.298 65.444 M35.896 81.725 C 36.322 81.790,37.020 81.790,37.447 81.725 C 37.874 81.661,37.525 81.608,36.671 81.608 C 35.818 81.608,35.469 81.661,35.896 81.725 M94.993 84.266 C 95.497 84.329,96.322 84.329,96.827 84.266 C 97.331 84.204,96.918 84.152,95.910 84.152 C 94.901 84.152,94.489 84.204,94.993 84.266 M153.953 86.230 C 153.683 86.301,153.175 86.304,152.824 86.236 C 152.473 86.169,152.694 86.111,153.315 86.108 C 153.935 86.105,154.222 86.160,153.953 86.230 M196.162 88.906 C 196.082 89.035,197.707 89.125,199.772 89.107 C 201.837 89.089,203.336 89.033,203.103 88.982 C 202.076 88.759,196.292 88.696,196.162 88.906 M169.882 203.541 C 167.025 205.542,159.598 205.892,156.203 204.186 C 155.219 203.691,155.027 203.683,153.524 204.066 C 152.633 204.293,150.063 204.681,147.814 204.928 C 144.550 205.286,143.353 205.543,141.890 206.196 C 140.867 206.653,138.809 207.225,137.236 207.489 C 135.684 207.750,133.815 208.199,133.082 208.488 C 132.349 208.776,130.057 209.264,127.987 209.572 C 125.306 209.970,123.680 210.376,122.328 210.982 C 121.284 211.450,119.325 212.040,117.973 212.292 C 116.621 212.544,113.681 213.435,111.439 214.272 C 107.644 215.689,106.792 215.887,101.634 216.559 C 99.813 216.796,99.445 217.393,99.531 219.975 C 99.622 222.714,99.684 222.906,100.668 223.488 C 101.114 223.751,101.630 224.331,101.815 224.778 C 102.000 225.225,102.522 225.864,102.975 226.199 C 103.428 226.534,103.989 227.176,104.222 227.626 C 104.476 228.117,105.022 228.568,105.590 228.756 C 106.110 228.928,106.901 229.449,107.346 229.914 C 107.845 230.434,108.561 230.824,109.208 230.928 C 110.598 231.150,111.383 232.023,111.459 233.431 C 111.542 234.975,111.598 235.022,112.631 234.428 C 113.816 233.747,114.958 233.523,117.310 233.509 C 120.166 233.493,121.016 234.190,121.016 236.549 C 121.016 237.704,121.019 237.704,122.517 236.829 C 123.949 235.992,127.455 235.579,128.946 236.071 C 130.169 236.475,130.560 237.117,130.640 238.853 C 130.692 239.995,131.453 241.077,131.453 240.009 C 131.453 239.880,131.646 239.774,131.883 239.774 C 132.120 239.774,133.040 239.515,133.928 239.199 C 135.300 238.710,136.499 238.599,141.890 238.458 C 150.027 238.244,151.476 238.585,151.485 240.711 C 151.491 242.081,151.781 242.874,152.290 242.911 C 152.543 242.929,152.370 243.041,151.904 243.159 L 151.058 243.375 151.956 243.408 C 152.616 243.433,152.900 243.296,153.028 242.892 C 153.124 242.589,153.418 242.281,153.682 242.206 C 154.857 241.872,157.506 241.453,160.367 241.147 C 164.465 240.710,197.935 240.746,207.581 241.198 C 213.266 241.465,217.563 241.457,228.456 241.158 C 244.222 240.727,309.352 240.708,338.787 241.127 C 348.794 241.269,362.664 241.324,369.608 241.250 L 382.235 241.114 383.274 240.162 C 383.846 239.638,384.479 239.210,384.681 239.210 C 384.884 239.210,385.081 239.199,385.120 239.185 C 386.232 238.791,387.579 238.788,387.684 239.180 C 387.750 239.429,387.820 239.108,387.838 238.466 C 387.863 237.548,387.772 237.307,387.412 237.337 C 387.115 237.363,386.813 236.978,386.556 236.249 C 385.974 234.595,385.670 234.415,383.006 234.140 C 380.386 233.870,378.860 233.274,378.815 232.503 C 378.800 232.236,378.756 231.655,378.716 231.213 C 378.671 230.698,378.852 230.216,379.221 229.873 C 379.537 229.578,379.653 229.337,379.477 229.337 C 379.302 229.337,379.076 229.471,378.975 229.634 C 378.874 229.797,378.645 229.879,378.465 229.816 C 378.285 229.753,377.597 230.087,376.935 230.558 C 374.575 232.236,367.305 232.380,366.441 230.765 C 366.288 230.479,366.139 229.596,366.111 228.803 C 366.063 227.435,365.299 226.671,364.969 227.661 C 364.622 228.701,358.086 229.663,354.450 229.209 C 352.336 228.945,351.763 228.371,351.763 226.516 C 351.763 224.873,351.824 224.891,349.507 225.833 C 346.468 227.068,338.302 227.333,336.302 226.263 C 335.604 225.889,335.283 224.913,335.461 223.703 C 335.541 223.159,335.446 222.818,335.187 222.719 C 334.589 222.489,333.768 222.537,333.662 222.807 C 333.174 224.055,324.604 225.055,321.008 224.284 C 318.940 223.841,318.477 223.365,318.477 221.682 C 318.477 220.435,318.412 220.304,317.701 220.116 L 316.925 219.912 317.772 219.721 C 318.378 219.585,318.079 219.521,316.714 219.497 C 315.311 219.473,314.810 219.562,314.810 219.835 C 314.810 221.175,310.706 222.080,304.513 222.107 C 297.775 222.135,296.702 221.708,296.811 219.041 L 296.868 217.630 298.434 217.466 C 299.945 217.308,299.922 217.301,297.789 217.255 C 295.949 217.215,295.498 217.296,295.109 217.732 C 293.948 219.034,290.613 219.574,283.639 219.590 C 275.447 219.609,275.215 219.522,274.970 216.363 C 274.877 215.156,274.256 214.958,273.144 215.779 C 270.503 217.730,255.082 217.912,253.748 216.008 C 253.233 215.273,253.173 213.230,253.653 212.750 C 253.916 212.487,253.806 212.412,253.157 212.412 C 252.644 212.412,252.194 212.617,251.989 212.944 C 250.842 214.781,236.413 215.844,234.235 214.252 C 233.417 213.654,233.217 210.451,233.978 210.143 C 234.354 209.991,233.817 209.917,232.440 209.931 C 230.685 209.949,230.517 209.988,231.453 210.155 L 232.581 210.357 231.475 210.397 C 230.867 210.419,230.141 210.644,229.862 210.896 C 228.702 211.946,225.808 212.412,220.457 212.410 C 213.432 212.408,212.412 212.027,212.412 209.404 C 212.412 208.749,212.283 208.134,212.125 208.037 C 211.967 207.939,211.912 207.741,212.001 207.597 C 212.094 207.446,211.419 207.334,210.407 207.334 C 209.441 207.334,208.736 207.419,208.839 207.523 C 210.662 209.346,195.610 211.151,192.041 209.538 C 190.889 209.017,190.554 208.264,190.745 206.628 C 190.810 206.071,190.731 205.621,190.564 205.594 C 190.401 205.568,191.030 205.463,191.961 205.360 L 193.653 205.172 191.625 205.125 C 190.509 205.099,189.518 205.205,189.422 205.360 C 189.326 205.515,188.738 205.642,188.116 205.642 C 187.489 205.642,186.796 205.829,186.563 206.062 C 185.581 207.044,183.098 207.475,178.420 207.475 C 172.324 207.475,171.509 207.193,171.509 205.080 C 171.509 203.106,171.081 202.701,169.882 203.541 M214.598 207.815 C 214.947 207.883,215.518 207.883,215.867 207.815 C 216.217 207.748,215.931 207.693,215.233 207.693 C 214.535 207.693,214.249 207.748,214.598 207.815 M275.317 214.953 C 276.016 215.071,276.707 215.055,276.855 214.918 C 277.012 214.771,276.488 214.683,275.585 214.704 L 274.048 214.739 275.317 214.953 M336.742 222.202 C 337.091 222.269,337.662 222.269,338.011 222.202 C 338.360 222.135,338.075 222.080,337.377 222.080 C 336.678 222.080,336.393 222.135,336.742 222.202 M351.058 224.542 C 351.154 224.697,351.471 224.824,351.763 224.824 C 352.055 224.824,352.372 224.697,352.468 224.542 C 352.570 224.377,352.278 224.260,351.763 224.260 C 351.249 224.260,350.956 224.377,351.058 224.542 M365.656 226.993 C 365.927 227.064,366.372 227.064,366.643 226.993 C 366.915 226.922,366.693 226.864,366.150 226.864 C 365.606 226.864,365.384 226.922,365.656 226.993 M208.554 245.628 C 213.801 245.671,222.306 245.671,227.454 245.627 C 232.601 245.584,228.307 245.549,217.913 245.549 C 207.518 245.549,203.306 245.585,208.554 245.628 " stroke="none" fill="#5760f3" fill-rule="evenodd"></path></g></svg>